<?xml version="1.0" standalone="no"?><svg xmlns:xlink="http://www.w3.org/1999/xlink" xmlns="http://www.w3.org/2000/svg" viewBox="0 0 1000 714.296469171121" preserveAspectRatio="xMaxYMax slice"><g transform="scale(3.011367913874878)"><rect x="0" y="0" width="332.08" height="237.2" fill="#ffffff"/><rect x="0" y="0" width="47.44" height="47.44" fill="#ffffff"/><circle cx="11.86" cy="11.86" r="11.86" fill="#fff9e5"/><circle cx="35.58" cy="11.86" r="11.86" fill="#fffcf0"/><circle cx="11.86" cy="35.58" r="11.86" fill="#fffcf4"/><g transform="translate(23.72,23.72) scale(1.186) rotate(0)"><path fill-rule="evenodd" clip-rule="evenodd" d="M10 20C15.5228 20 20 15.5228 20 10C20 4.47715 15.5228 0 10 0C4.47715 0 0 4.47715 0 10C0 15.5228 4.47715 20 10 20ZM10 17C13.866 17 17 13.866 17 10C17 6.13401 13.866 3 10 3C6.13401 3 3 6.13401 3 10C3 13.866 6.13401 17 10 17Z" fill="#fff7dd"/></g><circle cx="71.16" cy="23.72" r="23.72" fill="#fff9e2"/><g transform="translate(94.88,0) scale(2.372) rotate(0)"><path fill-rule="evenodd" clip-rule="evenodd" d="M10 20C15.5228 20 20 15.5228 20 10C20 4.47715 15.5228 0 10 0C4.47715 0 0 4.47715 0 10C0 15.5228 4.47715 20 10 20ZM10 17C13.866 17 17 13.866 17 10C17 6.13401 13.866 3 10 3C6.13401 3 3 6.13401 3 10C3 13.866 6.13401 17 10 17Z" fill="#fff8df"/></g><rect x="142.32" y="0" width="47.44" height="47.44" fill="#ffffff"/><circle cx="154.18" cy="11.86" r="11.86" fill="#f2f4fe"/><g transform="translate(166.04,0) scale(1.186) rotate(0)"><path fill-rule="evenodd" clip-rule="evenodd" d="M10 20C15.5228 20 20 15.5228 20 10C20 4.47715 15.5228 0 10 0C4.47715 0 0 4.47715 0 10C0 15.5228 4.47715 20 10 20ZM10 17C13.866 17 17 13.866 17 10C17 6.13401 13.866 3 10 3C6.13401 3 3 6.13401 3 10C3 13.866 6.13401 17 10 17Z" fill="#fffdf5"/></g><g transform="translate(142.32,23.72) scale(1.186) rotate(0)"><path fill-rule="evenodd" clip-rule="evenodd" d="M10 20C15.5228 20 20 15.5228 20 10C20 4.47715 15.5228 0 10 0C4.47715 0 0 4.47715 0 10C0 15.5228 4.47715 20 10 20ZM10 17C13.866 17 17 13.866 17 10C17 6.13401 13.866 3 10 3C6.13401 3 3 6.13401 3 10C3 13.866 6.13401 17 10 17Z" fill="#fffbed"/></g><g transform="translate(166.04,23.72) scale(1.186) rotate(0)"><path fill-rule="evenodd" clip-rule="evenodd" d="M10 20C15.5228 20 20 15.5228 20 10C20 4.47715 15.5228 0 10 0C4.47715 0 0 4.47715 0 10C0 15.5228 4.47715 20 10 20ZM10 17C13.866 17 17 13.866 17 10C17 6.13401 13.866 3 10 3C6.13401 3 3 6.13401 3 10C3 13.866 6.13401 17 10 17Z" fill="#fffae6"/></g><circle cx="213.48" cy="23.72" r="23.72" fill="#f5f6fe"/><circle cx="260.91999999999996" cy="23.72" r="23.72" fill="#eaedfd"/><g transform="translate(284.64,0) scale(2.372) rotate(0)"><path fill-rule="evenodd" clip-rule="evenodd" d="M10 20C15.5228 20 20 15.5228 20 10C20 4.47715 15.5228 0 10 0C4.47715 0 0 4.47715 0 10C0 15.5228 4.47715 20 10 20ZM10 17C13.866 17 17 13.866 17 10C17 6.13401 13.866 3 10 3C6.13401 3 3 6.13401 3 10C3 13.866 6.13401 17 10 17Z" fill="#fffbeb"/></g><circle cx="23.72" cy="71.16" r="23.72" fill="#fff8e2"/><rect x="47.44" y="47.44" width="47.44" height="47.44" fill="#ffffff"/><circle cx="59.3" cy="59.3" r="11.86" fill="#fffffe"/><g transform="translate(71.16,47.44) scale(1.186) rotate(0)"><path fill-rule="evenodd" clip-rule="evenodd" d="M10 20C15.5228 20 20 15.5228 20 10C20 4.47715 15.5228 0 10 0C4.47715 0 0 4.47715 0 10C0 15.5228 4.47715 20 10 20ZM10 17C13.866 17 17 13.866 17 10C17 6.13401 13.866 3 10 3C6.13401 3 3 6.13401 3 10C3 13.866 6.13401 17 10 17Z" fill="#fffdf7"/></g><g transform="translate(47.44,71.16) scale(1.186) rotate(0)"><path fill-rule="evenodd" clip-rule="evenodd" d="M10 20C15.5228 20 20 15.5228 20 10C20 4.47715 15.5228 0 10 0C4.47715 0 0 4.47715 0 10C0 15.5228 4.47715 20 10 20ZM10 17C13.866 17 17 13.866 17 10C17 6.13401 13.866 3 10 3C6.13401 3 3 6.13401 3 10C3 13.866 6.13401 17 10 17Z" fill="#f6f7fe"/></g><g transform="translate(71.16,71.16) scale(1.186) rotate(0)"><path fill-rule="evenodd" clip-rule="evenodd" d="M10 20C15.5228 20 20 15.5228 20 10C20 4.47715 15.5228 0 10 0C4.47715 0 0 4.47715 0 10C0 15.5228 4.47715 20 10 20ZM10 17C13.866 17 17 13.866 17 10C17 6.13401 13.866 3 10 3C6.13401 3 3 6.13401 3 10C3 13.866 6.13401 17 10 17Z" fill="#fffae7"/></g><circle cx="118.6" cy="71.16" r="23.72" fill="#fff8de"/><g transform="translate(142.32,47.44) scale(2.372) rotate(0)"><path fill-rule="evenodd" clip-rule="evenodd" d="M10 20C15.5228 20 20 15.5228 20 10C20 4.47715 15.5228 0 10 0C4.47715 0 0 4.47715 0 10C0 15.5228 4.47715 20 10 20ZM10 17C13.866 17 17 13.866 17 10C17 6.13401 13.866 3 10 3C6.13401 3 3 6.13401 3 10C3 13.866 6.13401 17 10 17Z" fill="#fff9e6"/></g><rect x="189.76" y="47.44" width="47.44" height="47.44" fill="#ffffff"/><circle cx="201.62" cy="59.3" r="11.86" fill="#fffcef"/><circle cx="225.33999999999997" cy="59.3" r="11.86" fill="#f3f5fe"/><g transform="translate(189.76,71.16) scale(1.186) rotate(0)"><path fill-rule="evenodd" clip-rule="evenodd" d="M10 20C15.5228 20 20 15.5228 20 10C20 4.47715 15.5228 0 10 0C4.47715 0 0 4.47715 0 10C0 15.5228 4.47715 20 10 20ZM10 17C13.866 17 17 13.866 17 10C17 6.13401 13.866 3 10 3C6.13401 3 3 6.13401 3 10C3 13.866 6.13401 17 10 17Z" fill="#fff8df"/></g><g transform="translate(213.48,71.16) scale(1.186) rotate(0)"><path fill-rule="evenodd" clip-rule="evenodd" d="M10 20C15.5228 20 20 15.5228 20 10C20 4.47715 15.5228 0 10 0C4.47715 0 0 4.47715 0 10C0 15.5228 4.47715 20 10 20ZM10 17C13.866 17 17 13.866 17 10C17 6.13401 13.866 3 10 3C6.13401 3 3 6.13401 3 10C3 13.866 6.13401 17 10 17Z" fill="#fff9e5"/></g><g transform="translate(237.2,47.44) scale(2.372) rotate(0)"><path fill-rule="evenodd" clip-rule="evenodd" d="M10 20C15.5228 20 20 15.5228 20 10C20 4.47715 15.5228 0 10 0C4.47715 0 0 4.47715 0 10C0 15.5228 4.47715 20 10 20ZM10 17C13.866 17 17 13.866 17 10C17 6.13401 13.866 3 10 3C6.13401 3 3 6.13401 3 10C3 13.866 6.13401 17 10 17Z" fill="#fff8de"/></g><rect x="284.64" y="47.44" width="47.44" height="47.44" fill="#ffffff"/><g transform="translate(284.64,47.44) scale(1.186) rotate(0)"><path fill-rule="evenodd" clip-rule="evenodd" d="M10 20C15.5228 20 20 15.5228 20 10C20 4.47715 15.5228 0 10 0C4.47715 0 0 4.47715 0 10C0 15.5228 4.47715 20 10 20ZM10 17C13.866 17 17 13.866 17 10C17 6.13401 13.866 3 10 3C6.13401 3 3 6.13401 3 10C3 13.866 6.13401 17 10 17Z" fill="#fafbff"/></g><circle cx="320.22" cy="59.3" r="11.86" fill="#f1f3fe"/><g transform="translate(284.64,71.16) scale(1.186) rotate(0)"><path fill-rule="evenodd" clip-rule="evenodd" d="M10 20C15.5228 20 20 15.5228 20 10C20 4.47715 15.5228 0 10 0C4.47715 0 0 4.47715 0 10C0 15.5228 4.47715 20 10 20ZM10 17C13.866 17 17 13.866 17 10C17 6.13401 13.866 3 10 3C6.13401 3 3 6.13401 3 10C3 13.866 6.13401 17 10 17Z" fill="#f5f6fe"/></g><circle cx="320.22" cy="83.02" r="11.86" fill="#fffaea"/><g transform="translate(0,94.88) scale(2.372) rotate(0)"><path fill-rule="evenodd" clip-rule="evenodd" d="M10 20C15.5228 20 20 15.5228 20 10C20 4.47715 15.5228 0 10 0C4.47715 0 0 4.47715 0 10C0 15.5228 4.47715 20 10 20ZM10 17C13.866 17 17 13.866 17 10C17 6.13401 13.866 3 10 3C6.13401 3 3 6.13401 3 10C3 13.866 6.13401 17 10 17Z" fill="#edeffd"/></g><rect x="47.44" y="94.88" width="47.44" height="47.44" fill="#ffffff"/><circle cx="59.3" cy="106.74" r="11.86" fill="#f7f8fe"/><g transform="translate(71.16,94.88) scale(1.186) rotate(0)"><path fill-rule="evenodd" clip-rule="evenodd" d="M10 20C15.5228 20 20 15.5228 20 10C20 4.47715 15.5228 0 10 0C4.47715 0 0 4.47715 0 10C0 15.5228 4.47715 20 10 20ZM10 17C13.866 17 17 13.866 17 10C17 6.13401 13.866 3 10 3C6.13401 3 3 6.13401 3 10C3 13.866 6.13401 17 10 17Z" fill="#fff7dd"/></g><g transform="translate(47.44,118.6) scale(1.186) rotate(0)"><path fill-rule="evenodd" clip-rule="evenodd" d="M10 20C15.5228 20 20 15.5228 20 10C20 4.47715 15.5228 0 10 0C4.47715 0 0 4.47715 0 10C0 15.5228 4.47715 20 10 20ZM10 17C13.866 17 17 13.866 17 10C17 6.13401 13.866 3 10 3C6.13401 3 3 6.13401 3 10C3 13.866 6.13401 17 10 17Z" fill="#e8ebfd"/></g><circle cx="83.02" cy="130.45999999999998" r="11.86" fill="#fff9e3"/><rect x="94.88" y="94.88" width="47.44" height="47.44" fill="#ffffff"/><g transform="translate(94.88,94.88) scale(1.186) rotate(0)"><path fill-rule="evenodd" clip-rule="evenodd" d="M10 20C15.5228 20 20 15.5228 20 10C20 4.47715 15.5228 0 10 0C4.47715 0 0 4.47715 0 10C0 15.5228 4.47715 20 10 20ZM10 17C13.866 17 17 13.866 17 10C17 6.13401 13.866 3 10 3C6.13401 3 3 6.13401 3 10C3 13.866 6.13401 17 10 17Z" fill="#eceefd"/></g><circle cx="130.45999999999998" cy="106.74" r="11.86" fill="#f4f5fe"/><circle cx="106.74" cy="130.45999999999998" r="11.86" fill="#f5f6fe"/><g transform="translate(118.6,118.6) scale(1.186) rotate(0)"><path fill-rule="evenodd" clip-rule="evenodd" d="M10 20C15.5228 20 20 15.5228 20 10C20 4.47715 15.5228 0 10 0C4.47715 0 0 4.47715 0 10C0 15.5228 4.47715 20 10 20ZM10 17C13.866 17 17 13.866 17 10C17 6.13401 13.866 3 10 3C6.13401 3 3 6.13401 3 10C3 13.866 6.13401 17 10 17Z" fill="#fffdf6"/></g><circle cx="166.04" cy="118.6" r="23.72" fill="#eef0fd"/><rect x="189.76" y="94.88" width="47.44" height="47.44" fill="#ffffff"/><g transform="translate(189.76,94.88) scale(1.186) rotate(0)"><path fill-rule="evenodd" clip-rule="evenodd" d="M10 20C15.5228 20 20 15.5228 20 10C20 4.47715 15.5228 0 10 0C4.47715 0 0 4.47715 0 10C0 15.5228 4.47715 20 10 20ZM10 17C13.866 17 17 13.866 17 10C17 6.13401 13.866 3 10 3C6.13401 3 3 6.13401 3 10C3 13.866 6.13401 17 10 17Z" fill="#fffcf1"/></g><g transform="translate(213.48,94.88) scale(1.186) rotate(0)"><path fill-rule="evenodd" clip-rule="evenodd" d="M10 20C15.5228 20 20 15.5228 20 10C20 4.47715 15.5228 0 10 0C4.47715 0 0 4.47715 0 10C0 15.5228 4.47715 20 10 20ZM10 17C13.866 17 17 13.866 17 10C17 6.13401 13.866 3 10 3C6.13401 3 3 6.13401 3 10C3 13.866 6.13401 17 10 17Z" fill="#ebedfd"/></g><circle cx="201.62" cy="130.45999999999998" r="11.86" fill="#fefeff"/><circle cx="225.33999999999997" cy="130.45999999999998" r="11.86" fill="#f5f7fe"/><rect x="237.2" y="94.88" width="47.44" height="47.44" fill="#ffffff"/><g transform="translate(237.2,94.88) scale(1.186) rotate(0)"><path fill-rule="evenodd" clip-rule="evenodd" d="M10 20C15.5228 20 20 15.5228 20 10C20 4.47715 15.5228 0 10 0C4.47715 0 0 4.47715 0 10C0 15.5228 4.47715 20 10 20ZM10 17C13.866 17 17 13.866 17 10C17 6.13401 13.866 3 10 3C6.13401 3 3 6.13401 3 10C3 13.866 6.13401 17 10 17Z" fill="#fff8e0"/></g><g transform="translate(260.92,94.88) scale(1.186) rotate(0)"><path fill-rule="evenodd" clip-rule="evenodd" d="M10 20C15.5228 20 20 15.5228 20 10C20 4.47715 15.5228 0 10 0C4.47715 0 0 4.47715 0 10C0 15.5228 4.47715 20 10 20ZM10 17C13.866 17 17 13.866 17 10C17 6.13401 13.866 3 10 3C6.13401 3 3 6.13401 3 10C3 13.866 6.13401 17 10 17Z" fill="#eef0fd"/></g><circle cx="249.06" cy="130.45999999999998" r="11.86" fill="#f7f8fe"/><g transform="translate(260.92,118.6) scale(1.186) rotate(0)"><path fill-rule="evenodd" clip-rule="evenodd" d="M10 20C15.5228 20 20 15.5228 20 10C20 4.47715 15.5228 0 10 0C4.47715 0 0 4.47715 0 10C0 15.5228 4.47715 20 10 20ZM10 17C13.866 17 17 13.866 17 10C17 6.13401 13.866 3 10 3C6.13401 3 3 6.13401 3 10C3 13.866 6.13401 17 10 17Z" fill="#fcfdff"/></g><rect x="284.64" y="94.88" width="47.44" height="47.44" fill="#ffffff"/><circle cx="296.5" cy="106.74" r="11.86" fill="#fffae7"/><circle cx="320.22" cy="106.74" r="11.86" fill="#f9fafe"/><circle cx="296.5" cy="130.45999999999998" r="11.86" fill="#fdfdff"/><circle cx="320.22" cy="130.45999999999998" r="11.86" fill="#e9ecfd"/><circle cx="23.72" cy="166.04" r="23.72" fill="#f4f6fe"/><rect x="47.44" y="142.32" width="47.44" height="47.44" fill="#ffffff"/><circle cx="59.3" cy="154.18" r="11.86" fill="#eaedfd"/><circle cx="83.02" cy="154.18" r="11.86" fill="#fffdf6"/><circle cx="59.3" cy="177.89999999999998" r="11.86" fill="#fffcef"/><circle cx="83.02" cy="177.89999999999998" r="11.86" fill="#f7f8fe"/><circle cx="118.6" cy="166.04" r="23.72" fill="#fcfdff"/><g transform="translate(142.32,142.32) scale(2.372) rotate(0)"><path fill-rule="evenodd" clip-rule="evenodd" d="M10 20C15.5228 20 20 15.5228 20 10C20 4.47715 15.5228 0 10 0C4.47715 0 0 4.47715 0 10C0 15.5228 4.47715 20 10 20ZM10 17C13.866 17 17 13.866 17 10C17 6.13401 13.866 3 10 3C6.13401 3 3 6.13401 3 10C3 13.866 6.13401 17 10 17Z" fill="#f3f5fe"/></g><rect x="189.76" y="142.32" width="47.44" height="47.44" fill="#ffffff"/><circle cx="201.62" cy="154.18" r="11.86" fill="#fff8df"/><g transform="translate(213.48,142.32) scale(1.186) rotate(0)"><path fill-rule="evenodd" clip-rule="evenodd" d="M10 20C15.5228 20 20 15.5228 20 10C20 4.47715 15.5228 0 10 0C4.47715 0 0 4.47715 0 10C0 15.5228 4.47715 20 10 20ZM10 17C13.866 17 17 13.866 17 10C17 6.13401 13.866 3 10 3C6.13401 3 3 6.13401 3 10C3 13.866 6.13401 17 10 17Z" fill="#f0f2fe"/></g><circle cx="201.62" cy="177.89999999999998" r="11.86" fill="#fffbec"/><g transform="translate(213.48,166.04) scale(1.186) rotate(0)"><path fill-rule="evenodd" clip-rule="evenodd" d="M10 20C15.5228 20 20 15.5228 20 10C20 4.47715 15.5228 0 10 0C4.47715 0 0 4.47715 0 10C0 15.5228 4.47715 20 10 20ZM10 17C13.866 17 17 13.866 17 10C17 6.13401 13.866 3 10 3C6.13401 3 3 6.13401 3 10C3 13.866 6.13401 17 10 17Z" fill="#fffbec"/></g><rect x="237.2" y="142.32" width="47.44" height="47.44" fill="#ffffff"/><circle cx="249.06" cy="154.18" r="11.86" fill="#fefeff"/><g transform="translate(260.92,142.32) scale(1.186) rotate(0)"><path fill-rule="evenodd" clip-rule="evenodd" d="M10 20C15.5228 20 20 15.5228 20 10C20 4.47715 15.5228 0 10 0C4.47715 0 0 4.47715 0 10C0 15.5228 4.47715 20 10 20ZM10 17C13.866 17 17 13.866 17 10C17 6.13401 13.866 3 10 3C6.13401 3 3 6.13401 3 10C3 13.866 6.13401 17 10 17Z" fill="#fefeff"/></g><circle cx="249.06" cy="177.89999999999998" r="11.86" fill="#fffffd"/><g transform="translate(260.92,166.04) scale(1.186) rotate(0)"><path fill-rule="evenodd" clip-rule="evenodd" d="M10 20C15.5228 20 20 15.5228 20 10C20 4.47715 15.5228 0 10 0C4.47715 0 0 4.47715 0 10C0 15.5228 4.47715 20 10 20ZM10 17C13.866 17 17 13.866 17 10C17 6.13401 13.866 3 10 3C6.13401 3 3 6.13401 3 10C3 13.866 6.13401 17 10 17Z" fill="#fffdf4"/></g><g transform="translate(284.64,142.32) scale(2.372) rotate(0)"><path fill-rule="evenodd" clip-rule="evenodd" d="M10 20C15.5228 20 20 15.5228 20 10C20 4.47715 15.5228 0 10 0C4.47715 0 0 4.47715 0 10C0 15.5228 4.47715 20 10 20ZM10 17C13.866 17 17 13.866 17 10C17 6.13401 13.866 3 10 3C6.13401 3 3 6.13401 3 10C3 13.866 6.13401 17 10 17Z" fill="#fffffe"/></g><rect x="0" y="189.76" width="47.44" height="47.44" fill="#ffffff"/><g transform="translate(0,189.76) scale(1.186) rotate(0)"><path fill-rule="evenodd" clip-rule="evenodd" d="M10 20C15.5228 20 20 15.5228 20 10C20 4.47715 15.5228 0 10 0C4.47715 0 0 4.47715 0 10C0 15.5228 4.47715 20 10 20ZM10 17C13.866 17 17 13.866 17 10C17 6.13401 13.866 3 10 3C6.13401 3 3 6.13401 3 10C3 13.866 6.13401 17 10 17Z" fill="#fffbeb"/></g><circle cx="35.58" cy="201.62" r="11.86" fill="#fcfdff"/><circle cx="11.86" cy="225.33999999999997" r="11.86" fill="#fff8e2"/><g transform="translate(23.72,213.48) scale(1.186) rotate(0)"><path fill-rule="evenodd" clip-rule="evenodd" d="M10 20C15.5228 20 20 15.5228 20 10C20 4.47715 15.5228 0 10 0C4.47715 0 0 4.47715 0 10C0 15.5228 4.47715 20 10 20ZM10 17C13.866 17 17 13.866 17 10C17 6.13401 13.866 3 10 3C6.13401 3 3 6.13401 3 10C3 13.866 6.13401 17 10 17Z" fill="#f1f3fe"/></g><g transform="translate(47.44,189.76) scale(2.372) rotate(0)"><path fill-rule="evenodd" clip-rule="evenodd" d="M10 20C15.5228 20 20 15.5228 20 10C20 4.47715 15.5228 0 10 0C4.47715 0 0 4.47715 0 10C0 15.5228 4.47715 20 10 20ZM10 17C13.866 17 17 13.866 17 10C17 6.13401 13.866 3 10 3C6.13401 3 3 6.13401 3 10C3 13.866 6.13401 17 10 17Z" fill="#fdfdff"/></g><rect x="94.88" y="189.76" width="47.44" height="47.44" fill="#ffffff"/><circle cx="106.74" cy="201.62" r="11.86" fill="#fffaeb"/><circle cx="130.45999999999998" cy="201.62" r="11.86" fill="#fff8df"/><g transform="translate(94.88,213.48) scale(1.186) rotate(0)"><path fill-rule="evenodd" clip-rule="evenodd" d="M10 20C15.5228 20 20 15.5228 20 10C20 4.47715 15.5228 0 10 0C4.47715 0 0 4.47715 0 10C0 15.5228 4.47715 20 10 20ZM10 17C13.866 17 17 13.866 17 10C17 6.13401 13.866 3 10 3C6.13401 3 3 6.13401 3 10C3 13.866 6.13401 17 10 17Z" fill="#fffbef"/></g><circle cx="130.45999999999998" cy="225.33999999999997" r="11.86" fill="#f8f9fe"/><rect x="142.32" y="189.76" width="47.44" height="47.44" fill="#ffffff"/><g transform="translate(142.32,189.76) scale(1.186) rotate(0)"><path fill-rule="evenodd" clip-rule="evenodd" d="M10 20C15.5228 20 20 15.5228 20 10C20 4.47715 15.5228 0 10 0C4.47715 0 0 4.47715 0 10C0 15.5228 4.47715 20 10 20ZM10 17C13.866 17 17 13.866 17 10C17 6.13401 13.866 3 10 3C6.13401 3 3 6.13401 3 10C3 13.866 6.13401 17 10 17Z" fill="#fff8de"/></g><circle cx="177.89999999999998" cy="201.62" r="11.86" fill="#ebeefd"/><circle cx="154.18" cy="225.33999999999997" r="11.86" fill="#f1f3fe"/><g transform="translate(166.04,213.48) scale(1.186) rotate(0)"><path fill-rule="evenodd" clip-rule="evenodd" d="M10 20C15.5228 20 20 15.5228 20 10C20 4.47715 15.5228 0 10 0C4.47715 0 0 4.47715 0 10C0 15.5228 4.47715 20 10 20ZM10 17C13.866 17 17 13.866 17 10C17 6.13401 13.866 3 10 3C6.13401 3 3 6.13401 3 10C3 13.866 6.13401 17 10 17Z" fill="#fffbeb"/></g><circle cx="213.48" cy="213.48" r="23.72" fill="#f3f5fe"/><rect x="237.2" y="189.76" width="47.44" height="47.44" fill="#ffffff"/><circle cx="249.06" cy="201.62" r="11.86" fill="#fcfcff"/><g transform="translate(260.92,189.76) scale(1.186) rotate(0)"><path fill-rule="evenodd" clip-rule="evenodd" d="M10 20C15.5228 20 20 15.5228 20 10C20 4.47715 15.5228 0 10 0C4.47715 0 0 4.47715 0 10C0 15.5228 4.47715 20 10 20ZM10 17C13.866 17 17 13.866 17 10C17 6.13401 13.866 3 10 3C6.13401 3 3 6.13401 3 10C3 13.866 6.13401 17 10 17Z" fill="#fffdf6"/></g><g transform="translate(237.2,213.48) scale(1.186) rotate(0)"><path fill-rule="evenodd" clip-rule="evenodd" d="M10 20C15.5228 20 20 15.5228 20 10C20 4.47715 15.5228 0 10 0C4.47715 0 0 4.47715 0 10C0 15.5228 4.47715 20 10 20ZM10 17C13.866 17 17 13.866 17 10C17 6.13401 13.866 3 10 3C6.13401 3 3 6.13401 3 10C3 13.866 6.13401 17 10 17Z" fill="#eef0fe"/></g><circle cx="272.78000000000003" cy="225.33999999999997" r="11.86" fill="#f6f7fe"/><g transform="translate(284.64,189.76) scale(2.372) rotate(0)"><path fill-rule="evenodd" clip-rule="evenodd" d="M10 20C15.5228 20 20 15.5228 20 10C20 4.47715 15.5228 0 10 0C4.47715 0 0 4.47715 0 10C0 15.5228 4.47715 20 10 20ZM10 17C13.866 17 17 13.866 17 10C17 6.13401 13.866 3 10 3C6.13401 3 3 6.13401 3 10C3 13.866 6.13401 17 10 17Z" fill="#ebeefd"/></g></g></svg>