<?xml version="1.0" standalone="no"?><svg xmlns:xlink="http://www.w3.org/1999/xlink" xmlns="http://www.w3.org/2000/svg" viewBox="0 0 1000 714.296469171121" preserveAspectRatio="xMaxYMax slice"><g transform="scale(3.011367913874878)"><rect x="0" y="0" width="332.08" height="237.2" fill="#ffffff"/><rect x="0" y="0" width="47.44" height="47.44" fill="#ffffff"/><rect x="0" y="0" width="23.72" height="23.72" fill="#eff2fe"/><polygon points="23.72,0 23.72,23.72 0,23.72" fill="#e2e7fc"/><rect x="23.72" y="0" width="23.72" height="23.72" fill="#fff6d7"/><polygon points="23.72,0 47.44,23.72 23.72,23.72" fill="#fff9e5"/><rect x="0" y="23.72" width="23.72" height="23.72" fill="#e5e9fd"/><polygon points="0,23.72 23.72,23.72 0,47.44" fill="#eceffd"/><rect x="23.72" y="23.72" width="23.72" height="23.72" fill="#f1f3fe"/><polygon points="23.72,23.72 47.44,23.72 47.44,47.44" fill="#fbfbff"/><rect x="47.44" y="0" width="47.44" height="47.44" fill="#e4e9fd"/><polygon points="94.88,0 94.88,47.44 47.44,47.44" fill="#fffcf0"/><rect x="94.88" y="0" width="47.44" height="47.44" fill="#ffffff"/><rect x="94.88" y="0" width="23.72" height="23.72" fill="#fff9e6"/><path d="M 94.88 23.72 A 23.72 23.72 0 0 1 118.6 0 L 118.6 5.93 A 17.79 17.79 0 0 0 100.81 23.72" fill="#fff8e2"/><rect x="118.6" y="0" width="23.72" height="23.72" fill="#fafafe"/><path d="M 118.6 0 A 23.72 23.72 0 0 1 142.32 23.72 L 136.39 23.72 A 17.79 17.79 0 0 0 118.6 5.93" fill="#fffaea"/><rect x="94.88" y="23.72" width="23.72" height="23.72" fill="#fffaea"/><path d="M 94.88 23.72 A 23.72 23.72 0 0 0 118.6 47.44 L 118.6 41.51 A 17.79 17.79 0 0 1 100.81 23.72" fill="#fffbed"/><rect x="118.6" y="23.72" width="23.72" height="23.72" fill="#fff4d1"/><path d="M 118.6 47.44 A 23.72 23.72 0 0 0 142.32 23.72 L 136.39 23.72 A 17.79 17.79 0 0 1 118.6 41.51" fill="#fff9e6"/><rect x="142.32" y="0" width="47.44" height="47.44" fill="#ffffff"/><rect x="142.32" y="0" width="23.72" height="23.72" fill="#fcfdff"/><polygon points="166.04,0 166.04,23.72 142.32,23.72" fill="#fffefc"/><rect x="166.04" y="0" width="23.72" height="23.72" fill="#edf0fd"/><polygon points="166.04,0 189.76,23.72 166.04,23.72" fill="#eff1fd"/><rect x="142.32" y="23.72" width="23.72" height="23.72" fill="#fffffd"/><polygon points="142.32,23.72 166.04,23.72 166.04,47.44" fill="#fff4d1"/><rect x="166.04" y="23.72" width="23.72" height="23.72" fill="#fff6da"/><polygon points="166.04,23.72 189.76,23.72 166.04,47.44" fill="#fffdf5"/><rect x="189.76" y="0" width="47.44" height="47.44" fill="#ffffff"/><rect x="189.76" y="0" width="23.72" height="23.72" fill="#fffcf1"/><circle cx="201.62" cy="11.86" r="11.86" fill="#fffaeb"/><rect x="213.48" y="0" width="23.72" height="23.72" fill="#fafbff"/><rect x="213.48" y="0" width="23.72" height="23.72" fill="#e9ecfd"/><rect x="189.76" y="23.72" width="23.72" height="23.72" fill="#f1f4fe"/><circle cx="201.62" cy="35.58" r="11.86" fill="#fff7dd"/><rect x="213.48" y="23.72" width="23.72" height="23.72" fill="#fff7dd"/><rect x="213.48" y="23.72" width="23.72" height="23.72" fill="#f3f5fe"/><rect x="237.2" y="0" width="47.44" height="47.44" fill="#ffffff"/><rect x="237.2" y="0" width="23.72" height="23.72" fill="#eaedfd"/><path d="M 237.2 23.72 A 23.72 23.72 0 0 1  260.91999999999996 0 L 260.91999999999996 23.72" fill="#fff5d5"/><rect x="260.92" y="0" width="23.72" height="23.72" fill="#fffcf2"/><path d="M 260.92 0 A 23.72 23.72 0 0 1 284.64 23.72 L 260.92 23.72" fill="#e4e8fc"/><rect x="237.2" y="23.72" width="23.72" height="23.72" fill="#eceffd"/><path d="M 237.2 23.72 A 23.72 23.72 0 0 0 260.91999999999996 47.44 L 260.91999999999996 23.72" fill="#fffdf5"/><rect x="260.92" y="23.72" width="23.72" height="23.72" fill="#f5f6fe"/><path d="M 260.92 47.44 A 23.72 23.72 0 0 0 284.64 23.72 L 260.92 23.72" fill="#e9ecfd"/><rect x="284.64" y="0" width="47.44" height="47.44" fill="#e2e7fc"/><rect x="284.64" y="0" width="47.44" height="47.44" fill="#fff7de"/><rect x="0" y="47.44" width="47.44" height="47.44" fill="#ffffff"/><rect x="0" y="47.44" width="23.72" height="23.72" fill="#edf0fd"/><path d="M 0 71.16 A 23.72 23.72 0 0 0 23.72 47.44 L 0 47.44" fill="#fff8e1"/><rect x="23.72" y="47.44" width="23.72" height="23.72" fill="#f0f2fe"/><path d="M 23.72 47.44 A 23.72 23.72 0 0 0 47.44 71.16 L 47.44 47.44" fill="#fff6db"/><rect x="0" y="71.16" width="23.72" height="23.72" fill="#f4f6fe"/><path d="M 0 71.16 A 23.72 23.72 0 0 1 23.72 94.88 L 0 94.88" fill="#fff8e3"/><rect x="23.72" y="71.16" width="23.72" height="23.72" fill="#fffbef"/><path d="M 23.72 94.88 A 23.72 23.72 0 0 1  47.44 71.16 L 47.44 94.88" fill="#fff6d7"/><rect x="47.44" y="47.44" width="47.44" height="47.44" fill="#ffffff"/><rect x="47.44" y="47.44" width="23.72" height="23.72" fill="#fffefb"/><path d="M 47.44 47.44 A 23.72 23.72 0 0 1 71.16 71.16 L 47.44 71.16" fill="#fff5d6"/><rect x="71.16" y="47.44" width="23.72" height="23.72" fill="#e6eafd"/><path d="M 71.16 71.16 A 23.72 23.72 0 0 1  94.88 47.44 L 94.88 71.16" fill="#fff8e2"/><rect x="47.44" y="71.16" width="23.72" height="23.72" fill="#f1f3fe"/><path d="M 47.44 94.88 A 23.72 23.72 0 0 0 71.16 71.16 L 47.44 71.16" fill="#fff7dc"/><rect x="71.16" y="71.16" width="23.72" height="23.72" fill="#eceffd"/><path d="M 71.16 71.16 A 23.72 23.72 0 0 0 94.88 94.88 L 94.88 71.16" fill="#fff5d5"/><rect x="94.88" y="47.44" width="47.44" height="47.44" fill="#ffffff"/><rect x="94.88" y="47.44" width="23.72" height="23.72" fill="#fcfcff"/><path d="M 94.88 71.16 A 23.72 23.72 0 0 0 118.6 47.44 L 94.88 47.44" fill="#fefeff"/><rect x="118.6" y="47.44" width="23.72" height="23.72" fill="#fdfdff"/><path d="M 118.6 47.44 A 23.72 23.72 0 0 0 142.32 71.16 L 142.32 47.44" fill="#e3e7fc"/><rect x="94.88" y="71.16" width="23.72" height="23.72" fill="#fff5d5"/><path d="M 94.88 71.16 A 23.72 23.72 0 0 1 118.6 94.88 L 94.88 94.88" fill="#fffefc"/><rect x="118.6" y="71.16" width="23.72" height="23.72" fill="#fff3cd"/><path d="M 118.6 94.88 A 23.72 23.72 0 0 1  142.32 71.16 L 142.32 94.88" fill="#f3f5fe"/><rect x="142.32" y="47.44" width="47.44" height="47.44" fill="#ffffff"/><rect x="142.32" y="47.44" width="23.72" height="23.72" fill="#fffef9"/><polygon points="166.04,47.44 166.04,71.16 142.32,71.16" fill="#f1f3fe"/><rect x="166.04" y="47.44" width="23.72" height="23.72" fill="#ebeefd"/><polygon points="166.04,47.44 189.76,47.44 166.04,71.16" fill="#fffaea"/><rect x="142.32" y="71.16" width="23.72" height="23.72" fill="#fff4d0"/><polygon points="142.32,71.16 166.04,71.16 166.04,94.88" fill="#e2e6fc"/><rect x="166.04" y="71.16" width="23.72" height="23.72" fill="#fff6d7"/><polygon points="166.04,71.16 189.76,94.88 166.04,94.88" fill="#f0f2fe"/><rect x="189.76" y="47.44" width="47.44" height="47.44" fill="#fffbef"/><path d="M 189.76 47.44 A 47.44 47.44 0 0 1 237.2 94.88 L 189.76 94.88" fill="#f9fafe"/><rect x="237.2" y="47.44" width="47.44" height="47.44" fill="#ffffff"/><rect x="237.2" y="47.44" width="23.72" height="23.72" fill="#e6eafd"/><polygon points="260.91999999999996,47.44 260.91999999999996,71.16 237.2,71.16" fill="#eff1fd"/><rect x="260.92" y="47.44" width="23.72" height="23.72" fill="#f4f5fe"/><polygon points="260.92,47.44 284.64,71.16 260.92,71.16" fill="#e1e6fc"/><rect x="237.2" y="71.16" width="23.72" height="23.72" fill="#f4f6fe"/><polygon points="237.2,71.16 260.91999999999996,71.16 260.91999999999996,94.88" fill="#fff5d4"/><rect x="260.92" y="71.16" width="23.72" height="23.72" fill="#e4e8fc"/><polygon points="260.92,71.16 284.64,71.16 260.92,94.88" fill="#e2e6fc"/><rect x="284.64" y="47.44" width="47.44" height="47.44" fill="#ffffff"/><rect x="284.64" y="47.44" width="23.72" height="23.72" fill="#f9fafe"/><path d="M 284.64 71.16 A 23.72 23.72 0 0 0 308.36 47.44 L 284.64 47.44" fill="#fefeff"/><rect x="308.36" y="47.44" width="23.72" height="23.72" fill="#f8f9fe"/><path d="M 308.36 47.44 A 23.72 23.72 0 0 0 332.08000000000004 71.16 L 332.08000000000004 47.44" fill="#fffae8"/><rect x="284.64" y="71.16" width="23.72" height="23.72" fill="#fff3cc"/><path d="M 284.64 71.16 A 23.72 23.72 0 0 1 308.36 94.88 L 284.64 94.88" fill="#fffef9"/><rect x="308.36" y="71.16" width="23.72" height="23.72" fill="#fff3cd"/><path d="M 308.36 94.88 A 23.72 23.72 0 0 1  332.08000000000004 71.16 L 332.08000000000004 94.88" fill="#e0e4fc"/><rect x="0" y="94.88" width="47.44" height="47.44" fill="#ffffff"/><rect x="0" y="94.88" width="23.72" height="23.72" fill="#fffbed"/><path d="M 0 118.6 A 23.72 23.72 0 0 1  23.72 94.88 L 23.72 118.6" fill="#fff9e8"/><rect x="23.72" y="94.88" width="23.72" height="23.72" fill="#fff9e4"/><path d="M 23.72 94.88 A 23.72 23.72 0 0 1 47.44 118.6 L 23.72 118.6" fill="#eceffd"/><rect x="0" y="118.6" width="23.72" height="23.72" fill="#eceffd"/><path d="M 0 118.6 A 23.72 23.72 0 0 0 23.72 142.32 L 23.72 118.6" fill="#fffdf6"/><rect x="23.72" y="118.6" width="23.72" height="23.72" fill="#eceffd"/><path d="M 23.72 142.32 A 23.72 23.72 0 0 0 47.44 118.6 L 23.72 118.6" fill="#fffef9"/><rect x="47.44" y="94.88" width="47.44" height="47.44" fill="#fff6db"/><rect x="47.44" y="94.88" width="47.44" height="47.44" fill="#fff6da"/><rect x="94.88" y="94.88" width="47.44" height="47.44" fill="#fff4d1"/><polygon points="94.88,94.88 142.32,142.32 94.88,142.32" fill="#fff7df"/><rect x="142.32" y="94.88" width="47.44" height="47.44" fill="#fdfeff"/><path d="M 142.32 94.88 A 47.44 47.44 0 0 0 189.76 142.32 L 189.76 94.88" fill="#f4f5fe"/><rect x="189.76" y="94.88" width="47.44" height="47.44" fill="#ffffff"/><rect x="189.76" y="94.88" width="23.72" height="23.72" fill="#e1e6fc"/><polygon points="213.48,94.88 213.48,118.6 189.76,118.6" fill="#fafbff"/><rect x="213.48" y="94.88" width="23.72" height="23.72" fill="#e0e5fc"/><polygon points="213.48,94.88 237.2,118.6 213.48,118.6" fill="#fff7de"/><rect x="189.76" y="118.6" width="23.72" height="23.72" fill="#fffae9"/><polygon points="189.76,118.6 213.48,118.6 213.48,142.32" fill="#fcfcff"/><rect x="213.48" y="118.6" width="23.72" height="23.72" fill="#fafbff"/><polygon points="213.48,118.6 237.2,118.6 213.48,142.32" fill="#fff4d2"/><rect x="237.2" y="94.88" width="47.44" height="47.44" fill="#fffaeb"/><rect x="237.2" y="94.88" width="47.44" height="47.44" fill="#fffdf6"/><rect x="284.64" y="94.88" width="47.44" height="47.44" fill="#fffcf2"/><rect x="284.64" y="94.88" width="47.44" height="47.44" fill="#fff7dc"/><rect x="0" y="142.32" width="47.44" height="47.44" fill="#f5f6fe"/><path d="M 0 142.32 A 47.44 47.44 0 0 1 47.44 189.76 L 0 189.76" fill="#fff6d9"/><rect x="47.44" y="142.32" width="47.44" height="47.44" fill="#f2f4fe"/><path d="M 47.44 189.76 A 47.44 47.44 0 0 1  94.88 142.32 L 94.88 189.76" fill="#fffcf0"/><rect x="94.88" y="142.32" width="47.44" height="47.44" fill="#ffffff"/><rect x="94.88" y="142.32" width="23.72" height="23.72" fill="#fffcf4"/><path d="M 94.88 142.32 A 23.72 23.72 0 0 1 118.6 166.04 L 94.88 166.04" fill="#eff2fe"/><rect x="118.6" y="142.32" width="23.72" height="23.72" fill="#eceffd"/><path d="M 118.6 166.04 A 23.72 23.72 0 0 1  142.32 142.32 L 142.32 166.04" fill="#fff7db"/><rect x="94.88" y="166.04" width="23.72" height="23.72" fill="#f6f7fe"/><path d="M 94.88 189.76 A 23.72 23.72 0 0 0 118.6 166.04 L 94.88 166.04" fill="#f2f4fe"/><rect x="118.6" y="166.04" width="23.72" height="23.72" fill="#eaedfd"/><path d="M 118.6 166.04 A 23.72 23.72 0 0 0 142.32 189.76 L 142.32 166.04" fill="#fffcf1"/><rect x="142.32" y="142.32" width="47.44" height="47.44" fill="#ffffff"/><rect x="142.32" y="142.32" width="23.72" height="23.72" fill="#f7f8fe"/><path d="M 142.32 166.04 A 23.72 23.72 0 0 0 166.04 142.32 L 142.32 142.32" fill="#eff2fe"/><rect x="166.04" y="142.32" width="23.72" height="23.72" fill="#fff8e1"/><path d="M 166.04 142.32 A 23.72 23.72 0 0 0 189.76 166.04 L 189.76 142.32" fill="#eaedfd"/><rect x="142.32" y="166.04" width="23.72" height="23.72" fill="#fff5d4"/><path d="M 142.32 166.04 A 23.72 23.72 0 0 1 166.04 189.76 L 142.32 189.76" fill="#fffdf8"/><rect x="166.04" y="166.04" width="23.72" height="23.72" fill="#fff3ce"/><path d="M 166.04 189.76 A 23.72 23.72 0 0 1  189.76 166.04 L 189.76 189.76" fill="#f5f6fe"/><rect x="189.76" y="142.32" width="47.44" height="47.44" fill="#ffffff"/><rect x="189.76" y="142.32" width="23.72" height="23.72" fill="#dfe4fc"/><polygon points="213.48,142.32 213.48,166.04 189.76,166.04" fill="#fbfbff"/><rect x="213.48" y="142.32" width="23.72" height="23.72" fill="#fcfdff"/><polygon points="213.48,142.32 237.2,142.32 213.48,166.04" fill="#fff4d1"/><rect x="189.76" y="166.04" width="23.72" height="23.72" fill="#fff3cd"/><polygon points="189.76,166.04 213.48,166.04 213.48,189.76" fill="#fff7de"/><rect x="213.48" y="166.04" width="23.72" height="23.72" fill="#eaedfd"/><polygon points="213.48,166.04 237.2,189.76 213.48,189.76" fill="#f3f5fe"/><rect x="237.2" y="142.32" width="47.44" height="47.44" fill="#ffffff"/><rect x="237.2" y="142.32" width="23.72" height="23.72" fill="#e4e8fc"/><circle cx="249.06" cy="154.18" r="11.86" fill="#e5e9fd"/><rect x="260.92" y="142.32" width="23.72" height="23.72" fill="#fff4d0"/><rect x="260.92" y="142.32" width="23.72" height="23.72" fill="#f8f9fe"/><rect x="237.2" y="166.04" width="23.72" height="23.72" fill="#fff9e4"/><circle cx="249.06" cy="177.89999999999998" r="11.86" fill="#fffffd"/><rect x="260.92" y="166.04" width="23.72" height="23.72" fill="#fff5d6"/><rect x="260.92" y="166.04" width="23.72" height="23.72" fill="#e3e8fc"/><rect x="284.64" y="142.32" width="47.44" height="47.44" fill="#f5f7fe"/><path d="M 284.64 189.76 A 47.44 47.44 0 0 0 332.08 142.32 L 284.64 142.32" fill="#e7eafd"/><rect x="0" y="189.76" width="47.44" height="47.44" fill="#ffffff"/><rect x="0" y="189.76" width="23.72" height="23.72" fill="#f5f6fe"/><path d="M 0 189.76 A 23.72 23.72 0 0 0 23.72 213.48 L 23.72 189.76" fill="#e9ecfd"/><rect x="23.72" y="189.76" width="23.72" height="23.72" fill="#e4e8fc"/><path d="M 23.72 213.48 A 23.72 23.72 0 0 0 47.44 189.76 L 23.72 189.76" fill="#f6f7fe"/><rect x="0" y="213.48" width="23.72" height="23.72" fill="#fffae9"/><path d="M 0 237.2 A 23.72 23.72 0 0 1  23.72 213.48 L 23.72 237.2" fill="#f8f9fe"/><rect x="23.72" y="213.48" width="23.72" height="23.72" fill="#e1e5fc"/><path d="M 23.72 213.48 A 23.72 23.72 0 0 1 47.44 237.2 L 23.72 237.2" fill="#fff7dc"/><rect x="47.44" y="189.76" width="47.44" height="47.44" fill="#fff7de"/><path d="M 47.44 189.76 A 47.44 47.44 0 0 1 94.88 237.2 L 47.44 237.2" fill="#fff4d2"/><rect x="94.88" y="189.76" width="47.44" height="47.44" fill="#ffffff"/><rect x="94.88" y="189.76" width="23.72" height="23.72" fill="#fafbff"/><polygon points="118.6,189.76 118.6,213.48 94.88,213.48" fill="#fffefb"/><rect x="118.6" y="189.76" width="23.72" height="23.72" fill="#fff9e3"/><polygon points="118.6,189.76 142.32,213.48 118.6,213.48" fill="#e1e6fc"/><rect x="94.88" y="213.48" width="23.72" height="23.72" fill="#e2e7fc"/><polygon points="94.88,213.48 118.6,213.48 118.6,237.2" fill="#fffefb"/><rect x="118.6" y="213.48" width="23.72" height="23.72" fill="#f9fafe"/><polygon points="118.6,213.48 142.32,213.48 118.6,237.2" fill="#fff4d0"/><rect x="142.32" y="189.76" width="47.44" height="47.44" fill="#f4f5fe"/><rect x="142.32" y="189.76" width="47.44" height="47.44" fill="#fff4cf"/><rect x="189.76" y="189.76" width="47.44" height="47.44" fill="#fffefa"/><rect x="189.76" y="189.76" width="47.44" height="47.44" fill="#f0f2fe"/><rect x="237.2" y="189.76" width="47.44" height="47.44" fill="#fffae9"/><rect x="237.2" y="189.76" width="47.44" height="47.44" fill="#fff6da"/><rect x="284.64" y="189.76" width="47.44" height="47.44" fill="#ffffff"/><rect x="284.64" y="189.76" width="23.72" height="23.72" fill="#fbfcff"/><polygon points="308.36,189.76 308.36,213.48 284.64,213.48" fill="#fffae9"/><rect x="308.36" y="189.76" width="23.72" height="23.72" fill="#fffbf0"/><polygon points="308.36,189.76 332.08000000000004,189.76 308.36,213.48" fill="#fff9e5"/><rect x="284.64" y="213.48" width="23.72" height="23.72" fill="#e5e9fd"/><polygon points="284.64,213.48 308.36,213.48 308.36,237.2" fill="#fff6d8"/><rect x="308.36" y="213.48" width="23.72" height="23.72" fill="#fffcf3"/><polygon points="308.36,213.48 332.08000000000004,237.2 308.36,237.2" fill="#e9edfd"/></g></svg>